<?xml version="1.0" encoding="UTF-8" standalone="no"?>
<svg
   viewBox="0 0 7559.0552 7559.0557"
   width="2000mm"
   height="2000mm"
   version="1.1"
   id="svg13"
   sodipodi:docname="mursExt.dxf"
   inkscape:export-filename="GareDecoupeuseLaser.dxf.svg"
   inkscape:export-xdpi="96"
   inkscape:export-ydpi="96"
   xmlns:inkscape="http://www.inkscape.org/namespaces/inkscape"
   xmlns:sodipodi="http://sodipodi.sourceforge.net/DTD/sodipodi-0.dtd"
   xmlns="http://www.w3.org/2000/svg"
   xmlns:svg="http://www.w3.org/2000/svg">
  <sodipodi:namedview
     id="namedview13"
     pagecolor="#ffffff"
     bordercolor="#000000"
     borderopacity="0.25"
     inkscape:showpageshadow="2"
     inkscape:pageopacity="0.0"
     inkscape:pagecheckerboard="0"
     inkscape:deskcolor="#d1d1d1"
     inkscape:document-units="mm">
    <inkscape:page
       x="0"
       y="0"
       width="7559.0552"
       height="7559.0557"
       id="page2"
       margin="0"
       bleed="0" />
  </sodipodi:namedview>
  <desc
     id="desc1">mursExt.dxf - scale = 1.000000, origin = (0.000000, 0.000000), method = manual</desc>
  <defs
     id="defs4" />
  <g
     inkscape:groupmode="layer"
     inkscape:label="mursExt v1_Sketch1"
     id="g13">
    <path
       id="path13"
       style="fill:none;stroke:#000000"
       d="m 2315.5265,1995.4631 h 691.654 m 0,-589.606 h -691.654 m 0,0 v 589.606 m 691.654,0 v -589.606" />
    <path
       id="path13-1"
       style="fill:none;stroke:#000000"
       d="m 1588.81,1997.547 h 691.654 m 0,-589.606 H 1588.81 m 0,0 v 589.606 m 691.654,0 v -589.606" />
    <path
       id="path37"
       style="fill:none;stroke:#000000"
       d="M 950.40238,26.683001 V 338.494 m 224.88222,45.35422 a 17.007875,17.007875 0 0 0 0,-34.01575 17.007875,17.007875 0 0 0 0,34.01575 z m 120.9448,0 a 17.007875,17.007875 0 0 0 0,-34.01575 17.007875,17.007875 0 0 0 0,34.01575 z m -60.4724,0 a 17.007875,17.007875 0 0 0 0,-34.01575 17.007875,17.007875 0 0 0 0,34.01575 z m 304.2523,20.78781 H 950.40238 M 1196.072,338.49389 a 155.90551,155.90551 0 0 0 0,-311.811019 M 950.40238,338.494 H 1196.0724 M 1540.0093,26.683001 V 404.63603 M 950.40238,26.683001 H 1540.0093 M 950.40238,404.63603 V 26.683001" />
    <path
       id="path78"
       style="fill:none;stroke:#000000"
       d="m 217.58063,77.947879 h -49.134 m 627.3999,0 h -49.1299 m -304.254,37.795601 a 28.34646,28.34646 0 0 0 56.6929,0 28.34646,28.34646 0 0 0 -56.6929,0 z m 228.664,-49.135601 h 75.59 m -529.136,0 h 75.591 m 377.955,11.34 h -75.59 m -377.956,377.952901 v 11.339 m 0,0 h 75.591 m 226.775,-389.291901 h -75.594 M 168.44663,455.90078 V 77.947879 m 275.906,-11.34 v 11.34 m -75.591,0 v -11.34 m 0,11.34 h -75.59 m 75.59,-11.34 h 75.591 m 75.594,0 h 75.59 m 0,0 v 11.34 m -302.365,-11.34 v 11.34 m 377.955,0 v -11.34 m -453.546,389.292901 h -49.134 m 351.5,-377.952901 v -11.34 m 226.77,0 v 11.34 m -529.136,0 v -11.34 m 75.591,400.631901 v -11.339 m 75.59,11.339 h 75.591 m 0,0 v -11.339 m 151.184,11.339 v -11.339 m 200.3099,0 h -49.1299 m -75.59,0 v 11.339 m -302.365,-11.339 h -75.59 m 75.59,0 v 11.339 m 377.955,0 v -11.339 m -75.59,0 h -75.59 m -75.59,0 h -75.594 m 75.594,0 v 11.339 m 0,0 h 75.59 m 75.59,0 h 75.59 M 795.84653,77.947879 V 455.90078" />
    <path
       d="m 3573,4149.21 a 0.25,0.25 0 0 0 -0.5,0 0.25,0.25 0 0 0 0.5,0 z"
       style="fill:none;stroke:#000000"
       id="path5" />
    <path
       id="path118-5"
       style="fill:none;stroke:#000000"
       d="m 940.76951,2392.3924 v -11.34 m 548.03209,-18.9 v -75.59 m -94.488,105.83 h 75.59 m 0,-11.34 h -75.59 m -151.181,0 v 11.34 m -151.1811,-11.34 v 11.34 m -75.591,-11.34 v 11.34 m 0,0 h -75.59099 m 302.36309,0 h 75.59 m -226.7711,0 h 75.59 m 302.3621,0 v -11.34 m -75.59,0 v 11.34 m -226.7721,0 v -11.34 m 321.2601,-170.0809 v -75.591 m -321.2601,245.6719 h -75.59 m 226.7711,0 h -75.59 m 75.59,11.34 v -11.34 m -377.95309,0 h 75.59099 m 483.7801,-18.9 h -11.339 m 11.339,-151.1809 h -11.339 m 0,75.5909 h 11.339 m 0,0 v 75.59 m -105.827,-548.0319 h 75.59 m -226.771,0 h 75.59 m -151.1811,0 v -11.338 m -257.00799,559.3699 v -75.59 m 257.00799,-483.7799 h -75.59 m -181.41799,30.236 h 11.289 m -30.186,578.2639 h 627.40109 m -578.26809,-49.13 h 529.13409 m -151.181,-548.0319 v -11.338 m -377.95309,11.338 h 75.59099 m -94.48799,321.26 v 75.591 m 548.03109,-377.953 H 940.76951 m -18.897,151.181 v 75.5899 m -0.05,-226.7709 v 75.59 m -11.289,151.181 v -75.59 m 589.60709,151.181 v 75.591 m 0,-226.772 v 75.59 m -11.339,-151.181 v -75.59 m 11.339,0 v 75.59 m 18.897,502.6739 v -627.3979 m -427.0861,18.898 v 11.338 m 396.8501,18.898 h 11.339 m -105.827,-30.236 v 11.338 m -453.54409,-11.338 v 11.338 m -49.133,548.0319 v 49.13 m 0,-627.3979 v 627.3979 m 578.26709,-608.4999 h -75.59 m 75.59,11.338 v -11.338 m -548.03109,408.189 h -11.339 m 11.339,-151.182 h -11.339 m 332.59909,-257.007 v 11.338 m -151.1811,0 h 75.59 m 151.1811,-11.338 h -75.59 m -332.59909,332.598 h 11.339 m 0,151.1819 v 75.59 M 1519.0376,1783.8845 H 891.63651 m 578.26709,578.2679 v -529.1339 m -559.37009,377.953 v -75.591 m 11.289,-226.772 h -11.289 m 30.236,-75.59 v 529.1339 m 548.03209,-377.9529 h 11.339 m -11.339,151.181 h 11.339 m -483.7801,-321.26 v -11.338 m -105.82699,105.826 v -75.59 m 578.26809,226.771 v -75.59 m 11.339,75.59 h -11.339 m -578.26809,226.7729 h 11.339 m 94.48799,-483.7799 h -75.59099 m -18.897,559.3699 h -11.339 m 11.339,-377.9529 h -11.339 m -18.897,427.0829 h 49.133 m 559.37109,-502.6739 h -11.339" />
    <path
       id="path149"
       style="fill:none;stroke:#000000"
       d="m 167.42715,2139.3742 h 11.34 m 18.9,245.6719 h 75.59 m 75.59,0 v 11.34 m 75.59,-578.2719 v -11.338 m -275.9,-18.898 v 627.3979 m 351.49002,-18.89 h 75.59 M 197.66715,1818.1142 h 75.59 m 472.44002,18.898 h 11.339 m -105.829,-18.898 h 75.593 m -151.183,578.2719 v -11.34 M 178.76715,2063.7832 h -11.34 m 181.42,332.6029 h 75.59 m 151.18002,-11.34 h -75.59 m -332.60002,-94.49 h 11.34 m 578.26902,0 v 75.59 m 0,-302.3629 h -11.339 m -18.897,321.2629 h -75.593 m 94.49,-472.4439 v -75.59 m -18.897,-30.236 h -75.593 m 105.829,408.189 h -11.339 m -396.85002,-408.189 v 11.338 m 226.77002,0 v -11.338 m 181.419,30.236 v 75.59 m -332.59902,-105.826 h -75.59 m 396.85002,181.417 h 11.339 m -105.829,408.1929 h 75.593 m -578.26302,-30.24 v 49.13 m 597.16002,-200.3109 v -75.591 m -472.44002,-321.26 v -11.338 m -94.49,559.3699 h -11.34 m 0,-302.3629 v -75.59 m 11.34,0 h -11.34 m 11.34,226.772 h -11.34 m 332.60002,170.0809 v 11.34 M 197.66715,1806.7762 v 11.338 m 75.59,578.2719 h -75.59 m -18.9,-257.0119 v 75.591 m 566.93002,-75.591 h 11.339 m -257.009,-332.598 v 11.338 m 0,0 h 75.59 m -427.08002,597.1619 h 627.39702 m -502.67702,-30.23 v 11.34 m -105.83,-181.4209 v -75.591 m 559.37302,257.0119 v -11.34 m 18.897,-94.49 h 11.339 M 167.42715,1912.6022 v -75.59 m 483.78002,-30.236 v 11.338 m 94.49,245.669 v -75.59 m 11.339,377.9529 h -11.339 M 167.42715,1837.0122 h 11.29 m 578.31902,151.181 v 75.59 m -332.59902,332.6029 v -11.34 m -275.9,30.23 h 49.13 m 529.13302,-597.1619 v -11.338 m 30.236,105.826 h -11.339 m -566.98002,0 h -11.29 m 0,453.5439 v -75.59 m 257.01,94.49 h -75.59 m 396.85002,-18.9 v -75.59 M 178.71715,1837.0122 v 75.59 m 0.05,377.9539 v 75.59 m 94.49,-559.3699 h -75.59 m 151.18,11.338 h 75.59 m 226.77002,566.9319 v 11.34 m -453.54002,0 v -11.34 m 377.95002,-578.2699 h -75.59 m 275.907,-18.898 H 148.53715 m 30.23,200.315 v 75.59 m 578.26902,75.591 v 75.591 m 18.898,200.3109 v -627.3979" />
    <path
       d="m 3573,4149.21 a 0.25,0.25 0 0 0 -0.5,0 0.25,0.25 0 0 0 0.5,0 z"
       style="fill:none;stroke:#000000"
       id="path150" />
    <path
       id="path157"
       style="fill:none;stroke:#000000"
       d="m 3030.1034,511.19945 v 435.694 m 627.4021,-435.694 h -627.4021 m 0,435.694 h 627.4021 m 0,0 v -435.694" />
    <path
       id="path158"
       style="fill:none;stroke:#000000"
       d="M 3352.6255,991.58501 3038.9256,1293.948 m 0,0 h 627.4008 m -313.701,-302.36299 313.701,302.36299" />
    <path
       id="path161"
       style="fill:none;stroke:#000000"
       d="m 3647.7981,29.846206 h -627.402 m 0,447.039904 h 627.402 M 3020.3961,29.846206 V 476.88611 m 627.402,0 V 29.846206" />
    <path
       id="path34"
       style="fill:none;stroke:#000000"
       d="m 947.44363,1591.2487 v -377.953 m 0,0 v 311.811 m 589.60697,66.142 H 947.44363 m 0,-377.953 h 589.60697 m -589.60697,311.811 h 245.66997 m -4e-4,0 a 155.90551,155.90551 0 0 0 0,-311.8109 m 343.9374,-1e-4 v 377.953" />
    <path
       id="path34-1"
       style="fill:none;stroke:#000000"
       d="M 950.87774,1197.0972 V 819.14419 m 0,0 v 311.81101 m 589.60696,66.142 H 950.87774 m 0,-377.95301 H 1540.4847 M 950.87774,1130.9552 h 245.66996 m -4e-4,0 a 155.90551,155.90551 0 0 0 0,-311.81091 m 343.9374,-10e-5 v 377.95301" />
    <path
       id="path40"
       style="fill:none;stroke:#000000"
       d="m 1196.2811,735.98951 a 155.90551,155.90551 0 0 0 0,-311.811 m -245.6696,0 h 589.607 m -589.607,311.811 h 245.67 m -245.67,66.142 v -377.953 m 549.059,233.039 v 105.827 m -120.945,0 v -105.827 m 120.945,105.827 h -120.945 m 161.493,-338.866 v 377.953 m -589.607,-377.953 v 311.811 m 589.607,66.142 h -589.607 m 428.114,-144.914 h 120.945 m -549.0587,-232.789 a 0.25,0.25 0 0 0 0,-0.5 0.25,0.25 0 0 0 0,0.5 z" />
    <path
       id="path41"
       style="fill:none;stroke:#000000"
       d="m 2581.3841,418.19894 h -627.401 m -377.953,313.70097 h 377.953 m 627.401,0 V 418.19894 m 389.292,-389.291 h -1394.646 m 377.953,389.291 v 313.70097 m 1016.693,0 V 28.90794 m -1394.646,702.99197 h 1394.646 M 1576.0301,28.90794 v 702.99197" />
    <path
       id="path12"
       style="fill:none;stroke:#000000"
       d="M 2981.5659,1356.5706 V 766.96364 m -1394.65,0 v 589.60696 m 0,0 h 1394.65 m 0,-589.60696 h -1394.65 m 0.25,589.60666 a 0.25,0.25 0 0 0 -0.5,0 0.25,0.25 0 0 0 0.5,0 z" />
    <path
       id="path79"
       style="fill:none;stroke:#000000"
       d="m 790.33444,889.35618 a 0.25,0.25 0 0 0 -0.5,0 0.25,0.25 0 0 0 0.5,0 z m -200.5649,-377.9527 h 75.591 m -226.772,0 v -11.339 m 151.181,11.339 v -11.339 m -151.181,400.632 h -75.591 m 151.181,-400.632 v 11.339 m -351.496,377.953 h 49.134 m 226.772,0 h 75.59 m -75.59,0 v 11.34 m -151.181,-389.293 h 75.59 m 302.363,389.293 v -11.34 m -453.544,11.34 v -11.34 m 0,-389.292 v 11.339 m 529.134,0 h 49.1339 m -502.6769,377.953 h 75.59 m 151.181,11.34 v -11.34 m 75.591,0 h 75.591 m -502.678,-377.953 h 49.134 m 377.953,389.293 h -75.591 m -226.771,0 h -75.591 m 529.134,-389.293 v -11.339 m -75.59,0 v 11.339 m 75.59,389.293 h -75.59 m 75.59,-11.34 v 11.34 m -453.543,-11.34 v 11.34 m 453.543,-11.34 h 49.1339 m -427.0869,11.34 v -11.34 m 377.953,-389.292 h -75.59 m -226.772,11.339 h 75.59 m -75.59,-11.339 h -75.591 m 226.772,389.292 v 11.34 m -427.087,-11.34 v -377.953 m 124.725,0 v -11.339 m 302.362,0 h -75.591 m 275.9059,11.339 v 377.953 m -427.0869,-389.292 v 11.339 m -75.59,-11.339 h -75.591 m 578.5179,389.2917 a 0.25,0.25 0 0 0 -0.5,0 0.25,0.25 0 0 0 0.5,0 z" />
    <path
       id="path146"
       style="fill:none;stroke:#000000"
       d="m 696.3058,977.51104 v -37.79 m -75.59,0 v 37.79 m 75.59,-37.79 h -75.59 m 0,37.79 h 75.59 m -340.157,-49.13 v -11.34001 m 0,389.29297 h -75.591 m 377.953,-377.95296 v -11.34001 m 0,11.34001 h -75.59 m -226.772,-11.34001 h 75.59 m 75.591,0 h 75.591 M 356.1488,1306.334 v 11.339 m 151.181,-389.29196 v -11.34001 m 226.772,0 v 11.34001 m -566.9299,0 V 1306.334 M 658.5108,917.04103 h 75.591 M 204.9679,1306.334 v 11.339 m 377.9529,0 v -11.339 m -226.772,11.339 h 75.59 m 75.591,0 h 75.591 m -75.591,-389.29196 h -75.591 m -226.7709,0 h -37.7961 m 113.386,389.29196 v -11.339 m 226.772,0 h -75.591 m 302.363,11.339 v -11.339 m -75.591,0 h -75.59 m 75.59,0 v 11.339 M 280.5578,917.04103 v 11.34001 M 167.1718,1306.334 h 37.7961 m 566.9289,0 h -37.795 M 204.9679,928.38104 v -11.34001 m 566.9289,11.34001 h -37.795 M 204.9679,917.04103 h 75.5899 m 226.772,389.29297 v 11.339 m 151.181,0 h 75.591 m -302.363,0 v -11.339 m -75.59,-377.95296 h -75.591 m 151.181,-11.34001 v 11.34001 m 151.182,-11.34001 v 11.34001 m 75.59,377.95296 h -75.59 m 75.59,0 h -75.59 m 188.976,0 V 928.38104 M 204.9679,1317.673 h 75.5899" />
    <path
       id="path163"
       style="fill:none;stroke:#000000"
       d="m 708.45313,1372.0788 h -75.591 m -415.75,-26.46 h 75.59 m 75.5901,0 h 75.5899 m -226.77,11.34 v -11.34 m 453.546,11.34 h -75.586 m 75.586,389.292 h 75.59 m -75.59,-11.339 v 11.339 m -37.796,-374.172 v 37.79 m 37.796,325.043 h -75.586 m -302.37,11.339 v -11.339 m -75.59,11.339 h 75.59 m 75.5901,-389.292 v -11.34 m 415.7519,11.34 h -37.796 m -529.136,377.953 v 11.339 m 75.59,-400.632 v 11.34 m 151.18,389.292 v -11.339 m 226.776,0 h -75.586 m -75.6,-389.293 h 75.6 m -226.7799,389.293 h -75.5901 m 302.37,11.339 v -11.339 m 188.972,0 h -37.796 m -75.59,-389.293 h 75.59 m -37.795,64.25 v -37.79 m -37.795,-15.12 v -11.34 m -151.186,400.632 h 75.6 m 37.79,-336.382 h 75.591 m -188.981,325.043 v 11.339 m 0,-389.292 h -75.59 m -75.5899,0 h -75.5901 m 151.18,-11.34 v 11.34 m 151.19,-11.34 v 11.34 m 151.176,389.292 v -11.339 m -226.776,-377.953 v -11.34 m 264.572,389.293 v -377.953 m -566.932,0 h -37.79 m 188.9701,389.292 h 75.5899 m -264.56,-389.292 v 377.953 m 340.15,0 h -75.59 m -264.56,0 h 37.79 m 529.136,-389.293 v 11.34 m -377.9559,377.953 v 11.339 m 302.3659,-11.339 h -75.586" />
  </g>
</svg>
